<svg xmlns="http://www.w3.org/2000/svg" width="20" height="20" viewBox="0 0 20 20" fill="none" stroke="#3e4c59" stroke-width="1.5" stroke-linejoin="round"><path d="M8.27,4.05 L8.82,1.68 L11.18,1.68 L11.73,4.05 L12.99,4.57 L15.04,3.28 L16.72,4.96 L15.43,7.01 L15.95,8.27 L18.32,8.82 L18.32,11.18 L15.95,11.73 L15.43,12.99 L16.72,15.04 L15.04,16.72 L12.99,15.43 L11.73,15.95 L11.18,18.32 L8.82,18.32 L8.27,15.95 L7.01,15.43 L4.96,16.72 L3.28,15.04 L4.57,12.99 L4.05,11.73 L1.68,11.18 L1.68,8.82 L4.05,8.27 L4.57,7.01 L3.28,4.96 L4.96,3.28 L7.01,4.57 Z"/><circle cx="10" cy="10" r="2.7"/></svg>
